<svg xmlns="http://www.w3.org/2000/svg" width="360.75" height="659.158" viewBox="0 0 360.75 659.158">
  <g id="Grupo_175" data-name="Grupo 175" transform="translate(0.302 -618.487)">
    <path id="Caminho_115" data-name="Caminho 115" d="M0,0H360V626.995H0Z" transform="translate(0 636)" fill="#e6dfd8"/>
    <path id="Caminho_29" data-name="Caminho 29" d="M6695.917,553.054c-60.711.29-176.093,4.2-176.093,4.2s.176-18.6,0-18.369c6.438-1.605,16.885-3.25,20.734-3.769,4.413-.595,14.754-1.968,19.168-2.2s18.537-.778,23.707-.778,16.646.412,20.681.778,19.294,2.151,21.563,2.563,15.764,3.112,18.159,3.753,10.089,3.021,13.746,3.982,5.8,2.151,9.836,3.066a117.127,117.127,0,0,0,14,2.746c6.306.778,10.594,1.236,14.5,1.327s13.115.046,16.016-.32,13.241-2.06,14.755-2.563,11.348-3.478,13.744-4.256,9.836-3.3,13.115-3.936,14-3.066,18.033-3.661,17.528-2.334,21.816-2.609,17.023-.778,20.3-.824,21.312.412,24.212.732,15.259,1.6,17.528,2.014,11.476,1.739,14.5,2.38c1.511.32,6.121,1.863,10.5,2.841-.444-.75.043,13,0,12.843C6830.285,552.934,6738.719,552.85,6695.917,553.054Z" transform="translate(-6520 86.342)" fill="#e6dfd8"/>
    <path id="Caminho_166" data-name="Caminho 166" d="M5435.217,6831.6c24.19-7.929,55.544-12.151,80.508-10.075,28.564,2.375,54.227,11.277,54.227,11.277s12.958,2.019,20.452,2.561,16.5.946,23.965.9,13.681-.407,21.651-.9,18.53-1.518,18.53-1.518,35.107-6.307,67.148-10.233c23.9-2.93,52.286,1.372,74,7.928.3.077-.2-26.286-.2-27.089s-42.272.156-42.272.156a11.918,11.918,0,0,1-5.869,4.374c-4.074,1.459-18.973,3.942-22.175,4.656s-12.059-.818-12.059-.818-6.764-.7-20.1.818-22.792-1.264-35.6-.818-51.044,1.085-71.852.818-20.425.164-33.229-.818c-1.588-.122-18.7.058-20.1,0-9.624-.4-15.45,1.8-25.265,0-11.2-2.053-26.928-.8-33.33-2.5s-38.43,2.5-38.43,2.5S5435.161,6831.452,5435.217,6831.6Z" transform="translate(-5435.494 -5558.618)" fill="#e6dfd8"/>
  </g>
</svg>
